<svg xmlns="http://www.w3.org/2000/svg" xmlns:xlink="http://www.w3.org/1999/xlink" viewBox="0 0 32 32"><defs><path id="a" d="M0 .004h6.343V32H0z"/><path id="c" d="M0 .005h6.342v21.604H0z"/><path id="e" d="M0 0h17.609v32H0z"/></defs><g fill="none" fill-rule="evenodd" transform="translate(7)"><mask id="b" fill="#fff"><use xlink:href="#a"/></mask><path fill="#B1060F" d="M0 0v16c0 8.8 0 16 .02 16 .01.02.56-.03 1.21-.1a114.86 114.86 0 0 1 5.01-.4c.08 0 .08-.36.09-6.77l.01-6.76v-.01L0 0z" mask="url(#b)"/><mask id="d" fill="#fff"><use xlink:href="#c"/></mask><path fill="#9D030F" mask="url(#d)" d="M6.335 21.609l.007-3.65-.004-.011v.008L0 .005z"/><path fill="#B1060F" d="M11.35.03l-.01 7.07-.02 7.06L17.61 32l-.05.01h.06c.02-.02.02-7.22.02-16L17.63.02h-6.28z"/><path fill="#9D030F" d="M11.331 10.59l-.006 3.574 6.014 17.068z"/><mask id="f" fill="#fff"><use xlink:href="#e"/></mask><path fill="#E50914" d="M0 0l6.34 17.96v-.01l.5 1.41c2.78 7.88 4.28 12.1 4.29 12.11l.93.06c1.54.07 3.46.24 4.9.42.34.04.63.06.65.04l-6.29-17.83-.58-1.63-3.23-9.14L6.35.12 6.31 0H0z" mask="url(#f)"/></g></svg>