<svg xmlns="http://www.w3.org/2000/svg" xmlns:xlink="http://www.w3.org/1999/xlink" viewBox="0 0 32 32"><defs><polygon id="a" points="0 .004 6.343 .004 6.343 32 0 32"/><polygon id="c" points="0 .005 6.342 .005 6.342 21.609 0 21.609"/><polygon id="e" points="0 0 17.609 0 17.609 32 0 32"/></defs><g fill="none" fill-rule="evenodd" transform="translate(7)"><mask id="b" fill="white"><use xlink:href="#a"/></mask><path fill="#B1060F" d="M0 0v16c0 8.8 0 16 .02 16 .01.02.56-.03 1.21-.1a114.86 114.86 0 0 1 5.01-.4c.08 0 .08-.36.09-6.77l.01-6.76v-.01L0 0z" mask="url(#b)"/><mask id="d" fill="white"><use xlink:href="#c"/></mask><polygon fill="#9D030F" points="6.335 21.609 6.342 17.959 6.338 17.948 6.338 17.956 0 .005" mask="url(#d)"/><path fill="#B1060F" d="M11.35.03l-.01 7.07-.02 7.06L17.61 32l-.05.01h.06c.02-.02.02-7.22.02-16L17.63.02h-6.28z"/><polygon fill="#9D030F" points="11.331 10.59 11.325 14.164 17.339 31.232"/><mask id="f" fill="white"><use xlink:href="#e"/></mask><path fill="#E50914" d="M0 0l6.34 17.96v-.01l.5 1.41c2.78 7.88 4.28 12.1 4.29 12.11l.93.06c1.54.07 3.46.24 4.9.42.34.04.63.06.65.04l-6.29-17.83-.58-1.63-3.23-9.14L6.35.12 6.31 0H0z" mask="url(#f)"/></g></svg>